<svg width="20" height="20" viewBox="0 0 20 20" fill="none" xmlns="http://www.w3.org/2000/svg">
<path d="M9.00003 13H11V15H9.00003V13ZM9.00003 5.00003H11V11H9.00003V5.00003ZM9.99003 3.05176e-05C4.47003 3.05176e-05 3.05176e-05 4.48003 3.05176e-05 10C3.05176e-05 15.52 4.47003 20 9.99003 20C15.52 20 20 15.52 20 10C20 4.48003 15.52 3.05176e-05 9.99003 3.05176e-05ZM10 18C5.58003 18 2.00003 14.42 2.00003 10C2.00003 5.58003 5.58003 2.00003 10 2.00003C14.42 2.00003 18 5.58003 18 10C18 14.42 14.42 18 10 18Z" fill="#3978FC"/>
</svg>
